<?xml version="1.0" encoding="utf-8"?>
<!-- Generator: Adobe Illustrator 18.0.0, SVG Export Plug-In . SVG Version: 6.00 Build 0)  -->
<!DOCTYPE svg PUBLIC "-//W3C//DTD SVG 1.1//EN" "http://www.w3.org/Graphics/SVG/1.1/DTD/svg11.dtd">
<svg version="1.1" id="Capa_1" xmlns="http://www.w3.org/2000/svg" xmlns:xlink="http://www.w3.org/1999/xlink" x="0px" y="0px"
	 viewBox="0 0 430.1 430.1" enable-background="new 0 0 430.1 430.1" xml:space="preserve">
<g>
	<path id="LinkedIn" d="M420.3,245.4v151.7h-88V255.6c0-35.6-12.7-59.8-44.6-59.8c-24.3,0-38.8,16.4-45.1,32.2
		c-2.3,5.7-2.9,13.5-2.9,21.4v147.8h-88c0,0,1.2-239.8,0-264.6h88V170c-0.2,0.3-0.4,0.6-0.6,0.9h0.6V170
		c11.7-18,32.6-43.7,79.3-43.7C376.9,126.3,420.3,164.1,420.3,245.4z M59.6,5C29.5,5,9.9,24.7,9.9,50.7c0,25.4,19.1,45.7,48.6,45.7
		h0.6c30.7,0,49.8-20.3,49.8-45.7C108.3,24.7,89.8,5,59.6,5z M15.1,397.1h88V132.5h-88V397.1z"/>
</g>
</svg>
